<svg xmlns="http://www.w3.org/2000/svg" viewBox="0 14.449999809265137 81.8499984741211 32.14999771118164" data-asc="0.92" width="81.8499984741211" height="32.14999771118164"><defs/><g><g fill="currentColor"><g transform="translate(0, 0)"><path d="M0 46.60L0 14.45L5.05 14.45L5.05 28.05L9.05 28.05L9.05 23.50L14.15 23.50L14.15 28.05L18.15 28.05L18.15 14.45L23.25 14.45L23.25 46.60L18.15 46.60L18.15 33L5.05 33L5.05 46.60L0 46.60ZM33.85 46.60L33.85 42.10L29.30 42.10L29.30 14.45L34.35 14.45L34.35 41.60L47.45 41.60L47.45 14.45L52.55 14.45L52.55 42.10L47.95 42.10L47.95 46.60L33.85 46.60ZM63.15 46.60L63.15 42.10L58.60 42.10L58.60 19L63.15 19L63.15 14.45L77.25 14.45L77.25 19L81.85 19L81.85 28.50L76.75 28.50L76.75 19.50L63.65 19.50L63.65 41.60L76.75 41.60L76.75 37.55L72.25 37.55L72.25 33L67.65 33L67.65 28.05L72.75 28.05L72.75 32.50L81.85 32.50L81.85 42.10L77.25 42.10L77.25 46.60L63.15 46.60Z"/></g></g></g></svg>